<svg xmlns="http://www.w3.org/2000/svg" xmlns:xlink="http://www.w3.org/1999/xlink" version="1.1" x="0px" y="0px" viewBox="0 0 91 113.75" enable-background="new 0 0 91 91" xml:space="preserve"><g><g><g><path d="M68.83,13.614c-0.012-0.008-0.014-0.016-0.025-0.023L46.67,0.388c-0.664-0.395-1.489-0.395-2.151,0L22.382,13.591     c-0.006,0.006-0.006,0.01-0.014,0.016c-0.625,0.381-1.01,1.057-1.01,1.789v26.426c0,1.16,0.939,2.1,2.1,2.1h40.118     c3.447,0,6.254-2.807,6.254-6.258V15.396C69.83,14.667,69.447,13.995,68.83,13.614z M53.414,20.989l-7.821,4.371l-7.818-4.369     v-3.422h15.639V20.989z M25.558,18.976l11.402,6.373L25.558,36.751V18.976z M40.771,27.478l3.799,2.123     c0.635,0.354,1.412,0.354,2.049,0l3.588-2.006l12.129,12.127H28.527L40.771,27.478z M54.018,25.466l11.611-6.49v18.102     L54.018,25.466z M45.593,4.636l17.936,10.699l-5.916,3.307V15.47c0-1.16-0.939-2.1-2.1-2.1H35.675c-1.16,0-2.102,0.939-2.102,2.1     v3.174l-5.916-3.309L45.593,4.636z"/><path d="M0.445,76.345c0,7.865,6.396,14.262,14.26,14.262c7.865,0,14.262-6.396,14.262-14.262S22.57,62.083,14.705,62.083     C6.841,62.083,0.445,68.479,0.445,76.345z M10.14,85.3c0-0.01,0.004-0.02,0.004-0.029c0-2.516,2.045-4.563,4.561-4.563     s4.561,2.047,4.561,4.563c0,0.01,0.004,0.02,0.004,0.029c-1.371,0.703-2.92,1.107-4.564,1.107S11.513,86.003,10.14,85.3z      M14.851,76.14c-0.982,0-1.781-0.803-1.781-1.787s0.799-1.785,1.781-1.785c0.984,0,1.787,0.801,1.787,1.785     S15.835,76.14,14.851,76.14z M14.705,66.282c5.549,0,10.061,4.514,10.061,10.063c0,2.174-0.699,4.184-1.875,5.83     c-0.648-1.709-1.809-3.168-3.303-4.174c0.781-1.012,1.25-2.275,1.25-3.648c0-3.301-2.686-5.986-5.986-5.986     c-3.299,0-5.982,2.686-5.982,5.986c0,1.318,0.434,2.533,1.156,3.523c-1.588,1.01-2.828,2.514-3.506,4.297     c-1.176-1.646-1.875-3.654-1.875-5.828C4.644,70.796,9.158,66.282,14.705,66.282z"/><path d="M45.447,90.606c7.864,0,14.26-6.396,14.26-14.262s-6.396-14.262-14.26-14.262c-7.863,0-14.262,6.396-14.262,14.262     S37.583,90.606,45.447,90.606z M40.882,85.3c0-0.01,0.004-0.02,0.004-0.029c0-2.516,2.045-4.563,4.561-4.563     c2.516,0,4.561,2.047,4.561,4.563c0,0.01,0.004,0.02,0.004,0.029c-1.371,0.703-2.92,1.107-4.565,1.107     C43.802,86.407,42.255,86.003,40.882,85.3z M45.593,76.14c-0.984,0-1.783-0.803-1.783-1.787s0.799-1.785,1.783-1.785     c0.985,0,1.786,0.801,1.786,1.785S46.578,76.14,45.593,76.14z M45.447,66.282c5.547,0,10.061,4.514,10.061,10.063     c0,2.174-0.699,4.182-1.875,5.828c-0.648-1.707-1.809-3.166-3.303-4.174c0.779-1.01,1.25-2.273,1.25-3.646     c0-3.301-2.686-5.986-5.987-5.986c-3.299,0-5.984,2.686-5.984,5.986c0,1.318,0.434,2.535,1.158,3.523     c-1.59,1.01-2.828,2.516-3.506,4.299c-1.176-1.646-1.877-3.656-1.877-5.83C35.384,70.796,39.898,66.282,45.447,66.282z"/><path d="M90.449,76.345c0-7.865-6.396-14.262-14.262-14.262c-7.863,0-14.26,6.396-14.26,14.262s6.396,14.262,14.26,14.262     C84.053,90.606,90.449,84.21,90.449,76.345z M71.623,85.3c0-0.01,0.004-0.02,0.004-0.029c0-2.516,2.045-4.563,4.561-4.563     c2.514,0,4.561,2.047,4.561,4.563c0,0.01,0.002,0.02,0.002,0.031c-1.371,0.701-2.918,1.105-4.563,1.105     S72.996,86.003,71.623,85.3z M76.334,76.14c-0.984,0-1.783-0.803-1.783-1.787s0.799-1.785,1.783-1.785s1.787,0.801,1.787,1.785     S77.318,76.14,76.334,76.14z M76.188,66.282c5.549,0,10.063,4.514,10.063,10.063c0,2.174-0.701,4.184-1.877,5.83     c-0.648-1.709-1.809-3.168-3.303-4.174c0.781-1.012,1.25-2.275,1.25-3.648c0-3.301-2.686-5.986-5.986-5.986     c-3.299,0-5.984,2.686-5.984,5.986c0,1.318,0.434,2.535,1.158,3.525c-1.588,1.008-2.828,2.512-3.506,4.295     c-1.174-1.646-1.875-3.654-1.875-5.828C66.127,70.796,70.641,66.282,76.188,66.282z"/><path d="M76.336,50.478H54.504c-1.16,0-2.1,0.939-2.1,2.1s0.939,2.1,2.1,2.1h19.732v3.223c0,1.16,0.939,2.1,2.1,2.1     s2.1-0.939,2.1-2.1v-5.322C78.436,51.417,77.496,50.478,76.336,50.478z"/><path d="M12.753,52.577v5.322c0,1.16,0.941,2.1,2.102,2.1c1.158,0,2.1-0.939,2.1-2.1v-3.223h26.389v3.223     c0,1.16,0.939,2.1,2.1,2.1c1.161,0,2.102-0.939,2.102-2.1V47.214c0-1.16-0.941-2.1-2.102-2.1c-1.16,0-2.1,0.939-2.1,2.1v3.264     H14.855C13.695,50.478,12.753,51.417,12.753,52.577z"/></g></g></g><text x="0" y="106" fill="#000000" font-size="5px" font-weight="bold" font-family="'Helvetica Neue', Helvetica, Arial-Unicode, Arial, Sans-serif">Created by BomSymbols</text><text x="0" y="111" fill="#000000" font-size="5px" font-weight="bold" font-family="'Helvetica Neue', Helvetica, Arial-Unicode, Arial, Sans-serif">from the Noun Project</text></svg>