<svg xmlns="http://www.w3.org/2000/svg" data-name="Layer 1" viewBox="0 0 64 80" x="0px" y="0px"><title>project-plan-scheme-design-work</title><path d="M50,36V32a.99974.99974,0,0,0-1-1H37.19141A5.91675,5.91675,0,0,0,38,28a6,6,0,0,0-12,0,5.91675,5.91675,0,0,0,.80859,3H15a.99974.99974,0,0,0-1,1v4a.99974.99974,0,0,0,1,1H25.86719L23.00781,59.876A.99963.99963,0,0,0,24,61h5a1.00018,1.00018,0,0,0,.98047-.80371L32,50.09912l2.01953,10.09717A1.00018,1.00018,0,0,0,35,61h5a.99963.99963,0,0,0,.99219-1.124L38.13281,37H49A.99974.99974,0,0,0,50,36Zm-2-1H37a.99963.99963,0,0,0-.99219,1.124L38.86719,59H35.81934L32.98047,44.80371a.99991.99991,0,0,0-1.96094,0L28.18066,59H25.13281l2.85938-22.876A.99963.99963,0,0,0,27,35H16V33H29.02734a1,1,0,0,0,.59766-1.80176A3.96194,3.96194,0,0,1,28,28a4,4,0,0,1,8,0,3.96194,3.96194,0,0,1-1.625,3.19824A1,1,0,0,0,34.97266,33H48Z"/><path d="M36.65039,2.76807a6.99733,6.99733,0,0,0-9.68945,10.084A3.9904,3.9904,0,0,1,28,15.65625V16a.99974.99974,0,0,0,1,1h6a.99974.99974,0,0,0,1-1v-.519a4.18122,4.18122,0,0,1,1.17773-2.77588,6.99313,6.99313,0,0,0-.52734-9.937Zm-.95117,8.58935A6.19924,6.19924,0,0,0,34.02051,15H29.96875a5.84541,5.84541,0,0,0-1.56836-3.53711,4.99957,4.99957,0,1,1,7.29883-.10547Z"/><rect x="30" y="18" width="4" height="2"/><path d="M13,24a6,6,0,1,0-6-6A6.00657,6.00657,0,0,0,13,24Zm0-10a4,4,0,1,1-4,4A4.00427,4.00427,0,0,1,13,14Z"/><path d="M2.68555,20.61963l1.74121.57666.25586.61523L3.94922,23.355a.99882.99882,0,0,0,.08887,1.00879A10.99746,10.99746,0,0,0,6.63672,26.9624a.99735.99735,0,0,0,1.00781.08838l1.544-.73291.61523.25537.57617,1.74072A.99951.99951,0,0,0,11.3291,29h3.3418a.99951.99951,0,0,0,.94922-.686l.56347-1.70166q.33692-.12523.665-.27685l1.50684.71533a.996.996,0,0,0,1.00781-.08838,11.00677,11.00677,0,0,0,2.59863-2.59863.99882.99882,0,0,0,.08887-1.00879L21.335,21.84863q.15234-.32886.27734-.665l1.70215-.564A.9997.9997,0,0,0,24,19.67041V16.32959a.9997.9997,0,0,0-.68555-.94922l-1.70215-.56348q-.1245-.3369-.27734-.66552l.71582-1.50635a.99882.99882,0,0,0-.08887-1.00879,11.01383,11.01383,0,0,0-2.59765-2.59912,1.00069,1.00069,0,0,0-1.00879-.08838l-1.50684.71582q-.32812-.1516-.665-.27685L15.62012,7.686A.99951.99951,0,0,0,14.6709,7H11.3291a.99951.99951,0,0,0-.94922.686L9.80371,9.42676l-.61523.25537-1.544-.7334a1.00336,1.00336,0,0,0-1.00879.08838,11.03928,11.03928,0,0,0-2.59765,2.59863.99792.99792,0,0,0-.08887,1.0083l.7334,1.54444-.25586.61523-1.74121.57666A.9997.9997,0,0,0,2,16.32959v3.34082A.9997.9997,0,0,0,2.68555,20.61963ZM4,17.05176l1.48926-.49317a1.00034,1.00034,0,0,0,.60937-.56543l.60157-1.44824a1.00221,1.00221,0,0,0-.02051-.8125l-.66309-1.397a9.059,9.059,0,0,1,1.31934-1.31934l1.39648.66358a.99817.99817,0,0,0,.8125.02051l1.44824-.60108a.99994.99994,0,0,0,.56543-.60986L12.05176,9h1.89648l.49317,1.48926a.99892.99892,0,0,0,.65722.64258,7.108,7.108,0,0,1,1.26953.52685,1.00249,1.00249,0,0,0,.89942.021l1.39648-.66358a9.03814,9.03814,0,0,1,1.31934,1.31983l-.66309,1.396a1.00243,1.00243,0,0,0,.02051.89942,7.20841,7.20841,0,0,1,.52832,1.26953.99817.99817,0,0,0,.6416.65771L22,17.05176v1.89648l-1.48926.49317a1.00056,1.00056,0,0,0-.6416.65722,7.24858,7.24858,0,0,1-.52832,1.27051,1.00136,1.00136,0,0,0-.02051.89893l.66309,1.396a9.01068,9.01068,0,0,1-1.31934,1.31934l-1.39648-.66309a.99487.99487,0,0,0-.89942.021,7.108,7.108,0,0,1-1.26953.52685.99892.99892,0,0,0-.65722.64258L13.94824,27H12.05176l-.49317-1.48926a.99994.99994,0,0,0-.56543-.60986L9.54492,24.2998a1.00222,1.00222,0,0,0-.8125.02051l-1.39648.66309A9.01068,9.01068,0,0,1,6.0166,23.66406l.66309-1.396a1.00341,1.00341,0,0,0,.02051-.813l-.60157-1.44824a1.00034,1.00034,0,0,0-.60937-.56543L4,18.94824Z"/><path d="M62,8H46a.99974.99974,0,0,0-1,1V28a.99974.99974,0,0,0,1,1H62a.99974.99974,0,0,0,1-1V9A.99974.99974,0,0,0,62,8ZM61,27H47V10H61Z"/><rect x="49" y="18" width="2" height="7"/><rect x="53" y="15" width="2" height="10"/><rect x="57" y="12" width="2" height="13"/><rect x="53" y="33" width="2" height="2"/><rect x="9" y="33" width="2" height="2"/><rect x="58" y="55" width="2" height="2"/><rect x="58" y="59" width="2" height="2"/><rect x="60" y="57" width="2" height="2"/><rect x="56" y="57" width="2" height="2"/><rect x="4" y="55" width="2" height="2"/><rect x="4" y="59" width="2" height="2"/><rect x="6" y="57" width="2" height="2"/><rect x="2" y="57" width="2" height="2"/><text x="0" y="79" fill="#000000" font-size="5px" font-weight="bold" font-family="'Helvetica Neue', Helvetica, Arial-Unicode, Arial, Sans-serif">Created by Nithinan Tatah</text><text x="0" y="84" fill="#000000" font-size="5px" font-weight="bold" font-family="'Helvetica Neue', Helvetica, Arial-Unicode, Arial, Sans-serif">from the Noun Project</text></svg>