<svg xmlns="http://www.w3.org/2000/svg" xmlns:xlink="http://www.w3.org/1999/xlink" version="1.1" x="0px" y="0px" viewBox="0 0 100 125" enable-background="new 0 0 100 100" xml:space="preserve"><g><path d="M24,68.655v-2.311C24,65.052,22.948,64,21.655,64h-2.311C18.052,64,17,65.052,17,66.345v2.311   C17,69.948,18.052,71,19.345,71h2.311C22.948,71,24,69.948,24,68.655z M19,68.655v-2.311C19,66.154,19.155,66,19.345,66h2.311   C21.845,66,22,66.154,22,66.345v2.311C22,68.846,21.845,69,21.655,69h-2.311C19.155,69,19,68.846,19,68.655z"/><path d="M27.344,71h2.312C30.948,71,32,69.948,32,68.655v-2.311C32,65.052,30.948,64,29.656,64h-2.312   C26.052,64,25,65.052,25,66.345v2.311C25,69.948,26.052,71,27.344,71z M27,66.345C27,66.154,27.154,66,27.344,66h2.312   C29.846,66,30,66.154,30,66.345v2.311C30,68.846,29.846,69,29.656,69h-2.312C27.154,69,27,68.846,27,68.655V66.345z"/><path d="M35.343,71h2.313C38.949,71,40,69.948,40,68.655v-2.311C40,65.052,38.949,64,37.657,64h-2.313   C34.051,64,33,65.052,33,66.345v2.311C33,69.948,34.051,71,35.343,71z M35,66.345C35,66.154,35.154,66,35.343,66h2.313   C37.846,66,38,66.154,38,66.345v2.311C38,68.846,37.846,69,37.657,69h-2.313C35.154,69,35,68.846,35,68.655V66.345z"/><path d="M45.345,71h2.311C48.948,71,50,69.948,50,68.655v-2.311C50,65.052,48.948,64,47.655,64h-2.311   C44.052,64,43,65.052,43,66.345v2.311C43,69.948,44.052,71,45.345,71z M45,66.345C45,66.154,45.155,66,45.345,66h2.311   C47.845,66,48,66.154,48,66.345v2.311C48,68.846,47.845,69,47.655,69h-2.311C45.155,69,45,68.846,45,68.655V66.345z"/><path d="M53.345,71h2.311C56.948,71,58,69.948,58,68.655v-2.311C58,65.052,56.948,64,55.655,64h-2.311   C52.052,64,51,65.052,51,66.345v2.311C51,69.948,52.052,71,53.345,71z M53,66.345C53,66.154,53.154,66,53.345,66h2.311   C55.846,66,56,66.154,56,66.345v2.311C56,68.846,55.846,69,55.655,69h-2.311C53.154,69,53,68.846,53,68.655V66.345z"/><path d="M61.345,71h2.311C64.948,71,66,69.948,66,68.655v-2.311C66,65.052,64.948,64,63.655,64h-2.311   C60.052,64,59,65.052,59,66.345v2.311C59,69.948,60.052,71,61.345,71z M61,66.345C61,66.154,61.154,66,61.345,66h2.311   C63.846,66,64,66.154,64,66.345v2.311C64,68.846,63.846,69,63.655,69h-2.311C61.154,69,61,68.846,61,68.655V66.345z"/><path d="M70.344,71h2.312C73.948,71,75,69.948,75,68.655v-2.311C75,65.052,73.948,64,72.656,64h-2.312   C69.052,64,68,65.052,68,66.345v2.311C68,69.948,69.052,71,70.344,71z M70,66.345C70,66.154,70.154,66,70.344,66h2.312   C72.846,66,73,66.154,73,66.345v2.311C73,68.846,72.846,69,72.656,69h-2.312C70.154,69,70,68.846,70,68.655V66.345z"/><path d="M80.655,64h-2.311C77.052,64,76,65.052,76,66.345v2.311C76,69.948,77.052,71,78.345,71h2.311   C81.948,71,83,69.948,83,68.655v-2.311C83,65.052,81.948,64,80.655,64z M81,68.655C81,68.846,80.846,69,80.655,69h-2.311   C78.154,69,78,68.846,78,68.655v-2.311C78,66.154,78.154,66,78.345,66h2.311C80.846,66,81,66.154,81,66.345V68.655z"/><path d="M28,76.655v-2.311C28,73.052,26.948,72,25.656,72h-2.312C22.052,72,21,73.052,21,74.345v2.311   C21,77.948,22.052,79,23.344,79h2.312C26.948,79,28,77.948,28,76.655z M23,76.655v-2.311C23,74.154,23.154,74,23.344,74h2.312   C25.846,74,26,74.154,26,74.345v2.311C26,76.846,25.846,77,25.656,77h-2.312C23.154,77,23,76.846,23,76.655z"/><path d="M36,76.655v-2.311C36,73.052,34.948,72,33.656,72h-2.312C30.052,72,29,73.052,29,74.345v2.311   C29,77.948,30.052,79,31.344,79h2.312C34.948,79,36,77.948,36,76.655z M31,76.655v-2.311C31,74.154,31.154,74,31.344,74h2.312   C33.846,74,34,74.154,34,74.345v2.311C34,76.846,33.846,77,33.656,77h-2.312C31.154,77,31,76.846,31,76.655z"/><path d="M38,74.345v2.311C38,77.948,39.052,79,40.345,79h2.311C43.948,79,45,77.948,45,76.655v-2.311   C45,73.052,43.948,72,42.655,72h-2.311C39.052,72,38,73.052,38,74.345z M40,74.345C40,74.154,40.155,74,40.345,74h2.311   C42.845,74,43,74.154,43,74.345v2.311C43,76.846,42.845,77,42.655,77h-2.311C40.155,77,40,76.846,40,76.655V74.345z"/><path d="M46,74.345v2.311C46,77.948,47.052,79,48.345,79h2.311C51.948,79,53,77.948,53,76.655v-2.311   C53,73.052,51.948,72,50.655,72h-2.311C47.052,72,46,73.052,46,74.345z M51,74.345v2.311C51,76.846,50.845,77,50.655,77h-2.311   C48.155,77,48,76.846,48,76.655v-2.311C48,74.154,48.155,74,48.345,74h2.311C50.845,74,51,74.154,51,74.345z"/><path d="M59.655,79C60.948,79,62,77.948,62,76.655v-2.311C62,73.052,60.948,72,59.655,72h-2.311C56.052,72,55,73.052,55,74.345   v2.311C55,77.948,56.052,79,57.345,79H59.655z M57,76.655v-2.311C57,74.154,57.154,74,57.345,74h2.311   C59.846,74,60,74.154,60,74.345v2.311C60,76.846,59.846,77,59.655,77h-2.311C57.154,77,57,76.846,57,76.655z"/><path d="M63,74.345v2.311C63,77.948,64.052,79,65.344,79h2.312C68.948,79,70,77.948,70,76.655v-2.311   C70,73.052,68.948,72,67.656,72h-2.312C64.052,72,63,73.052,63,74.345z M68,74.345v2.311C68,76.846,67.846,77,67.656,77h-2.312   C65.154,77,65,76.846,65,76.655v-2.311C65,74.154,65.154,74,65.344,74h2.312C67.846,74,68,74.154,68,74.345z"/><path d="M75.655,72h-2.311C72.052,72,71,73.052,71,74.345v2.311C71,77.948,72.052,79,73.345,79h2.311   C76.948,79,78,77.948,78,76.655v-2.311C78,73.052,76.948,72,75.655,72z M76,76.655C76,76.846,75.846,77,75.655,77h-2.311   C73.154,77,73,76.846,73,76.655v-2.311C73,74.154,73.154,74,73.345,74h2.311C75.846,74,76,74.154,76,74.345V76.655z"/><path d="M31.026,81.843c0.039-0.395,0.092-0.936-0.319-1.39C30.435,80.152,30.042,80,29.54,80h-2.486   C25.806,80,24,80.795,24,82.231v2.484C24,86.236,25.958,87,27.054,87h2.486c0.494,0,0.884-0.153,1.159-0.455   c0.42-0.463,0.366-1.024,0.327-1.436C31.014,84.989,31,84.857,31,84.716v-2.484C31,82.09,31.014,81.959,31.026,81.843z M27.054,85   c-0.339,0-0.88-0.224-1.054-0.394v-2.253C26.175,82.204,26.68,82,27.054,82h1.953C29.002,82,29,82.152,29,82.231v2.484   c0,0.098,0.004,0.192,0.01,0.284H27.054z"/><path d="M35.462,80C34.082,80,33,80.98,33,82.231v2.484C33,85.976,34.104,87,35.462,87h2.486C39.195,87,40,86.104,40,84.716v-2.484   C40,80.876,39.195,80,37.948,80H35.462z M38,82.231v2.484c0,0.173-0.027,0.272-0.005,0.281C37.985,84.999,37.97,85,37.948,85   h-2.486C35.224,85,35,84.84,35,84.716v-2.484C35,82.131,35.224,82,35.462,82l2.499-0.053C37.961,81.948,38,82.021,38,82.231z"/><path d="M47.231,80h-3.462C42.728,80,42,81.099,42,82.671v1.658C42,85.901,42.728,87,43.769,87h3.462   C48.272,87,49,85.901,49,84.329v-1.658C49,81.099,48.272,80,47.231,80z M47,84.329c0,0.31-0.05,0.534-0.097,0.671h-2.806   C44.05,84.863,44,84.639,44,84.329v-1.658c0-0.31,0.05-0.534,0.097-0.671h2.806C46.95,82.137,47,82.361,47,82.671V84.329z"/><path d="M52.345,80C51.052,80,50,81.052,50,82.345v2.311C50,85.948,51.052,87,52.345,87h2.311C55.948,87,57,85.948,57,84.655   v-2.311C57,81.052,55.948,80,54.655,80H52.345z M55,82.345v2.311C55,84.846,54.846,85,54.655,85h-2.311   C52.154,85,52,84.846,52,84.655v-2.311C52,82.154,52.154,82,52.345,82h2.311C54.846,82,55,82.154,55,82.345z"/><path d="M61.345,87h2.311C64.948,87,66,85.948,66,84.655v-2.311C66,81.052,64.948,80,63.655,80h-2.311   C60.052,80,59,81.052,59,82.345v2.311C59,85.948,60.052,87,61.345,87z M61,82.345C61,82.154,61.154,82,61.345,82h2.311   C63.846,82,64,82.154,64,82.345v2.311C64,84.846,63.846,85,63.655,85h-2.311C61.154,85,61,84.846,61,84.655V82.345z"/><path d="M72.228,80h-2.485C68.418,80,67,80.896,67,82.231v2.484C67,86.062,68.445,87,69.742,87h2.485C74,87,74,85.281,74,84.716   v-2.484C74,81.621,74,80,72.228,80z M72,84.716c0,0.062,0,0.176-0.004,0.284h-2.254c-0.319,0-0.695-0.226-0.742-0.284l-0.016-2.413   C69.046,82.199,69.407,82,69.742,82l2.256,0.002C72,82.092,72,82.181,72,82.231V84.716z"/><path d="M64.886,87.92L34.16,87.936c-1.151,0-2.16,1.044-2.16,2.233v2.465c0,1.188,1.014,2.231,2.17,2.231h0l30.782-0.016   c1.129,0,2.047-1.002,2.047-2.233v-2.464C67,88.942,66.032,87.92,64.886,87.92z M65,92.616c0,0.144-0.066,0.229-0.048,0.233   l-30.774,0.016C34.122,92.852,34,92.746,34,92.634v-2.465c0-0.121,0.122-0.224,0.161-0.233l30.707-0.018   C64.904,89.93,65,90.019,65,90.152V92.616z"/><path d="M97,32h-6.975l-0.022-7h-0.004c-0.002-1-0.447-1-0.999-1H79v-9.7c0.051-0.035,0.107-0.056,0.152-0.101   c0.391-0.391,0.391-1.023,0-1.414l-0.348-0.348c-0.067-0.096-0.146-0.175-0.242-0.242l-9.757-9.756   c-0.067-0.097-0.147-0.177-0.245-0.245l-0.015-0.015C68.235,1.868,67.775,1.816,67.401,2H21c-0.552,0-1,0.448-1,1v21h-9   c-0.552,0-1,0.448-1,1c0,0.129,0.029,0.25,0.073,0.364l-0.021,6.647C10.034,32.01,10.019,32,10,32H3c-0.552,0-1,0.448-1,1v9   c0,0.552,0.448,1,1,1h7c0.006,0,0.011-0.003,0.017-0.003L9.852,94.59c0,2.35,1.924,4.41,4.117,4.41h72.139   c2.192,0,4.116-2.061,4.116-4.413L90.061,43H97c0.553,0,1-0.448,1-1v-9C98,32.448,97.553,32,97,32z M91,34h5v1h-5V34z M66.609,49   h-5.437C60.163,49,58,46.703,58,45.341V44h1h19c0.553,0,1-0.448,1-1V26h9.006l0.09,28H71.722c0.004-0.083,0.024-0.16,0.024-0.244   C71.746,51,69.586,49,66.609,49z M29.076,53h-17.09l0.086-27H20v17c0,0.552,0.448,1,1,1h20.175l0.004,1.747   c0,1.504-0.657,3.253-1.503,3.253h-5.534C31.434,49,29.42,50.648,29.076,53z M34.142,51h5.534c2.275,0,3.503-2.707,3.503-5.253   l-0.007-2.865c0-0.315-0.149-0.612-0.401-0.801c-0.253-0.188-0.58-0.248-0.882-0.158L41.628,42H22v-5h6c0,0.552,0.448,1,1,1h4   c0.552,0,1-0.448,1-1h29c0,0.552,0.447,1,1,1h4c0.553,0,1-0.448,1-1h8v5H59h-2c-0.553,0-1,0.448-1,1v2.341   C56,47.721,58.997,51,61.173,51h5.437c1.511,0,3.137,0.862,3.137,2.756c0,1.893-1.626,2.754-3.137,2.754   c-0.192,0-8.221,0.031-16.246,0.063c-8.016,0.031-16.03,0.062-16.222,0.062c-1.789,0-3.138-1.257-3.138-2.924   C31.004,51.839,32.58,51,34.142,51z M69,5.461L75.539,12H69V5.461z M22,4h45v9c0,0.552,0.447,1,1,1h9v11v10h-8c0-0.552-0.447-1-1-1   h-4c-0.553,0-1,0.448-1,1H34c0-0.552-0.448-1-1-1h-4c-0.552,0-1,0.448-1,1h-6V25V4z M4,34h5v1H4V34z M4,41v-4h5v4H4z M86.108,97   H13.969c-1.108,0-2.117-1.148-2.117-2.407L11.979,55h17.219c0.58,2.112,2.534,3.636,4.945,3.636c0.192,0,8.209-0.031,16.23-0.062   c8.021-0.032,16.045-0.063,16.237-0.063c2.076,0,3.736-0.986,4.562-2.51h16.931l0.123,38.59C88.225,95.852,87.216,97,86.108,97z    M91,41v-4h5v4H91z"/><path d="M28,14h29c0.553,0,1-0.448,1-1s-0.447-1-1-1H28c-0.552,0-1,0.448-1,1S27.448,14,28,14z"/><path d="M28,20h44c0.553,0,1-0.448,1-1s-0.447-1-1-1H28c-0.552,0-1,0.448-1,1S27.448,20,28,20z"/><path d="M28,26h44c0.553,0,1-0.448,1-1s-0.447-1-1-1H28c-0.552,0-1,0.448-1,1S27.448,26,28,26z"/><path d="M28,32h44c0.553,0,1-0.448,1-1s-0.447-1-1-1H28c-0.552,0-1,0.448-1,1S27.448,32,28,32z"/></g><text x="0" y="115" fill="#000000" font-size="5px" font-weight="bold" font-family="'Helvetica Neue', Helvetica, Arial-Unicode, Arial, Sans-serif">Created by Konrad Michalik</text><text x="0" y="120" fill="#000000" font-size="5px" font-weight="bold" font-family="'Helvetica Neue', Helvetica, Arial-Unicode, Arial, Sans-serif">from the Noun Project</text></svg>