<?xml version="1.0" encoding="UTF-8" standalone="no"?>
<svg
   xmlns:dc="http://purl.org/dc/elements/1.1/"
   xmlns:cc="http://creativecommons.org/ns#"
   xmlns:rdf="http://www.w3.org/1999/02/22-rdf-syntax-ns#"
   xmlns:svg="http://www.w3.org/2000/svg"
   xmlns="http://www.w3.org/2000/svg"
   xmlns:sodipodi="http://sodipodi.sourceforge.net/DTD/sodipodi-0.dtd"
   xmlns:inkscape="http://www.inkscape.org/namespaces/inkscape"
   viewBox="0 0 34.25 58.137499999999996"
   x="0px"
   y="0px"
   version="1.1"
   id="svg18"
   sodipodi:docname="noun_profile_1905240.svg"
   inkscape:version="0.92.2 5c3e80d, 2017-08-06">
  <metadata
     id="metadata24">
    <rdf:RDF>
      <cc:Work
         rdf:about="">
        <dc:format>image/svg+xml</dc:format>
        <dc:type
           rdf:resource="http://purl.org/dc/dcmitype/StillImage" />
      </cc:Work>
    </rdf:RDF>
  </metadata>
  <defs
     id="defs22" />
  <sodipodi:namedview
     pagecolor="#ffffff"
     bordercolor="#666666"
     borderopacity="1"
     objecttolerance="10"
     gridtolerance="10"
     guidetolerance="10"
     inkscape:pageopacity="0"
     inkscape:pageshadow="2"
     inkscape:window-width="1213"
     inkscape:window-height="832"
     id="namedview20"
     showgrid="false"
     inkscape:zoom="4.059342"
     inkscape:cx="17.125"
     inkscape:cy="29.06875"
     inkscape:window-x="0"
     inkscape:window-y="0"
     inkscape:window-maximized="0"
     inkscape:current-layer="svg18" />
  <title
     id="title2">About Us1x</title>
  <g
     data-name="Layer 2"
     id="g12"
     transform="translate(0,4.6805615)">
    <g
       data-name="Layer 1"
       id="g10">
      <path
         d="m 26.22,6.2 c 0,-4.75 -8,-4.75 -8,-4.75 -0.73,0 0,-1.36 0,-1.36 -5.08,-0.68 -6.54,2.71 -6.54,2.71 -4.36,0 -3.6,4.75 -3.6,4.75 v 4.71 0.66 a 9.06,9.06 0 0 0 18.12,0 v 0 z M 17.13,20 a 7.06,7.06 0 0 1 -7.06,-7 l 0.17,-4.67 a 6.62,6.62 0 0 1 2.91,-1.79 c 0.73,2.33 10.17,3.78 10.17,3.78 a 3.93,3.93 0 0 1 0.46,0.26 7,7 0 0 1 -6.65,9.42 z"
         id="path4"
         inkscape:connector-curvature="0" />
      <path
         d="m 33.25,40.12 h -7 a 1,1 0 1 1 0,-2 H 32.2 C 31.58,31.73 25.05,26.68 17.12,26.68 9.19,26.68 2.67,31.73 2,38.12 h 6 a 1,1 0 0 1 0,2 H 1 a 1,1 0 0 1 -1,-1 c 0,-8 7.68,-14.44 17.13,-14.44 9.45,0 17.13,6.48 17.13,14.44 a 1,1 0 0 1 -1.01,1 z"
         id="path6"
         inkscape:connector-curvature="0" />
      <path
         d="m 17.13,31.73 a 7.39,7.39 0 1 0 7.39,7.39 7.39,7.39 0 0 0 -7.39,-7.39 z m -0.64,3.45 a 0.89,0.89 0 1 1 -0.26,0.63 0.85,0.85 0 0 1 0.25,-0.63 z m 2,7.63 h -2.77 v -0.27 a 0.85,0.85 0 0 0 0.41,-0.15 0.71,0.71 0 0 0 0.17,-0.54 v -3.36 a 0.72,0.72 0 0 0 -0.12,-0.48 0.85,0.85 0 0 0 -0.46,-0.19 v -0.27 h 2.19 v 4.34 a 0.7,0.7 0 0 0 0.11,0.48 0.88,0.88 0 0 0 0.42,0.17 z"
         id="path8"
         inkscape:connector-curvature="0" />
    </g>
  </g>
</svg>
