<?xml version="1.0" encoding="UTF-8" standalone="no"?>
<svg
   xmlns:dc="http://purl.org/dc/elements/1.1/"
   xmlns:cc="http://creativecommons.org/ns#"
   xmlns:rdf="http://www.w3.org/1999/02/22-rdf-syntax-ns#"
   xmlns:svg="http://www.w3.org/2000/svg"
   xmlns="http://www.w3.org/2000/svg"
   xmlns:sodipodi="http://sodipodi.sourceforge.net/DTD/sodipodi-0.dtd"
   xmlns:inkscape="http://www.inkscape.org/namespaces/inkscape"
   version="1.1"
   x="0px"
   y="0px"
   viewBox="0 0 52 65"
   style="enable-background:new 0 0 52 52;"
   xml:space="preserve"
   id="svg34"
   sodipodi:docname="noun_Email_1046224.svg"
   inkscape:version="0.92.2 5c3e80d, 2017-08-06"><metadata
     id="metadata40"><rdf:RDF><cc:Work
         rdf:about=""><dc:format>image/svg+xml</dc:format><dc:type
           rdf:resource="http://purl.org/dc/dcmitype/StillImage" /></cc:Work></rdf:RDF></metadata><defs
     id="defs38" /><sodipodi:namedview
     pagecolor="#ffffff"
     bordercolor="#666666"
     borderopacity="1"
     objecttolerance="10"
     gridtolerance="10"
     guidetolerance="10"
     inkscape:pageopacity="0"
     inkscape:pageshadow="2"
     inkscape:window-width="723"
     inkscape:window-height="480"
     id="namedview36"
     showgrid="false"
     inkscape:zoom="3.6307692"
     inkscape:cx="26"
     inkscape:cy="32.5"
     inkscape:window-x="0"
     inkscape:window-y="0"
     inkscape:window-maximized="0"
     inkscape:current-layer="svg34" /><style
     type="text/css"
     id="style2">
	.st0{fill:none;stroke:#000000;stroke-width:2;stroke-linecap:round;stroke-linejoin:round;stroke-miterlimit:10;}
	.st1{fill:none;stroke:#000000;stroke-width:2;stroke-linejoin:round;stroke-miterlimit:10;}
	.st2{fill:none;stroke:#000000;stroke-width:2;stroke-miterlimit:10;}
</style><line
     class="st0"
     x1="3"
     y1="21"
     x2="8.8"
     y2="16.4"
     id="line4" /><path
     class="st1"
     d="M34,21c0,4.4-3.6,8-8,8c-2.7,0-5-1.3-6.5-3.3l-0.1-0.1C18.5,24.3,18,22.7,18,21c0-0.7,0.1-1.3,0.2-1.9l0,0  c0.9-3.5,4-6,7.8-6c1,0,2,0.2,2.9,0.5C31.9,14.8,34,17.7,34,21z"
     id="path6" /><line
     class="st2"
     x1="25"
     y1="19"
     x2="31"
     y2="19"
     id="line8" /><line
     class="st2"
     x1="25"
     y1="23"
     x2="31"
     y2="23"
     id="line10" /><line
     class="st2"
     x1="21"
     y1="19"
     x2="23"
     y2="19"
     id="line12" /><line
     class="st2"
     x1="21"
     y1="23"
     x2="23"
     y2="23"
     id="line14" /><polyline
     class="st0"
     points="49,20.9 49,49 3,49 3,20.9 "
     id="polyline16" /><polyline
     class="st0"
     points="49,20.9 26,39 3,20.9 "
     id="polyline18" /><line
     class="st0"
     x1="3"
     y1="49"
     x2="20.9"
     y2="35"
     id="line20" /><line
     class="st0"
     x1="31.1"
     y1="35"
     x2="49"
     y2="49"
     id="line22" /><line
     class="st0"
     x1="43.1"
     y1="16.4"
     x2="49"
     y2="21"
     id="line24" /><polyline
     class="st0"
     points="19.8,7.9 26,3 32.3,8 "
     id="polyline26" /><polyline
     class="st0"
     points="9,25.3 9,8 43,8 43,25.3 "
     id="polyline28" /></svg>